<svg version="1.1" id="Layer_1" xmlns="http://www.w3.org/2000/svg" xmlns:xlink="http://www.w3.org/1999/xlink" x="0px" y="0px"
	 width="100%" viewBox="0 0 143 155" enable-background="new 0 0 143 155" xml:space="preserve">
<path fill="#FEFEFE" opacity="1.000000" stroke="none" 
	d="
M78.000000,156.000000 
	C53.000000,156.000000 28.499809,155.956894 4.000290,156.065445 
	C1.499326,156.076523 0.932065,155.499557 0.936359,152.999893 
	C1.021687,103.333374 1.021687,53.666630 0.936359,4.000109 
	C0.932065,1.500457 1.500374,0.931408 4.000122,0.936190 
	C49.666622,1.023549 95.333382,1.023549 140.999878,0.936190 
	C143.499634,0.931408 144.067932,1.500457 144.063644,4.000109 
	C143.978317,53.666630 143.978302,103.333374 144.063629,152.999893 
	C144.067932,155.499557 143.501144,156.079941 140.999634,156.065979 
	C120.166946,155.949692 99.333336,156.000000 78.000000,156.000000 
z"/>
<path fill="#271E1B" opacity="1.000000" stroke="none" 
	d="
M68.888016,130.131439 
	C60.418262,112.541367 52.073528,95.309235 43.423466,77.446594 
	C37.178200,91.894424 31.003609,105.609932 25.376257,119.546402 
	C23.704510,123.686577 21.613277,125.096413 17.339081,124.698448 
	C13.219687,124.314888 9.036597,124.615448 4.579556,124.615448 
	C4.829072,121.169800 6.669042,118.557808 7.873594,115.757324 
	C15.187761,98.752480 22.691008,81.827721 29.846632,64.756966 
	C31.321505,61.238441 33.182652,59.883862 36.862900,60.339516 
	C39.158787,60.623768 41.571522,60.710415 43.839622,60.332455 
	C50.533054,59.217060 53.988136,61.947380 56.826885,68.177025 
	C66.014984,88.340378 75.886467,108.194221 85.647675,128.092255 
	C86.957008,130.761307 86.993431,132.911041 85.685616,135.501343 
	C83.312103,140.202408 81.209709,145.040344 78.687767,150.482300 
	C75.253815,143.386002 72.133430,136.937698 68.888016,130.131439 
z"/>
<path fill="#271E1C" opacity="1.000000" stroke="none" 
	d="
M112.155212,66.802368 
	C120.389542,84.933090 128.415924,102.741615 136.658524,120.449509 
	C138.363846,124.113121 137.344543,124.157463 133.826569,124.774269 
	C122.777000,126.711617 117.243057,122.256805 113.663956,111.824158 
	C109.708488,100.294426 103.797897,89.435432 98.370972,77.473473 
	C93.692978,87.543556 89.295166,97.010513 84.814827,106.655121 
	C84.394791,106.152504 84.248825,106.041168 84.186684,105.894356 
	C81.556946,99.681839 75.838760,93.926941 76.403595,87.471558 
	C76.961006,81.100975 82.021652,75.251411 84.171486,68.858772 
	C86.492844,61.956066 90.402985,58.955875 97.634415,60.365040 
	C99.239891,60.677891 101.003014,60.655495 102.616920,60.363689 
	C107.737335,59.437893 110.808716,61.446266 112.155212,66.802368 
z"/>
<path fill="#040404" opacity="1.000000" stroke="none" 
	d="
M48.605759,37.596390 
	C43.463108,41.323086 39.046776,40.801201 33.920479,37.680546 
	C26.035297,32.880424 17.614590,28.960022 9.103963,24.500181 
	C19.199274,19.208372 29.014242,14.118299 38.763107,8.904615 
	C40.595642,7.924577 42.010067,8.028624 43.809204,8.990010 
	C53.434040,14.133135 63.129604,19.143898 72.831619,24.216566 
	C72.641762,24.573349 72.561470,24.966164 72.390793,25.010416 
	C61.718113,27.777588 62.593220,36.078529 63.144295,44.234707 
	C63.263176,45.994148 63.771473,47.464321 65.560905,48.219070 
	C66.627472,48.668919 67.197418,49.671768 66.691277,50.635891 
	C65.940079,52.066811 64.545654,51.292988 63.617229,50.844063 
	C60.895176,49.527874 60.119778,46.968433 60.054775,44.202789 
	C59.962582,40.280266 60.031384,36.353958 60.031384,31.921917 
	C55.973042,33.918053 52.446495,35.652622 48.605759,37.596390 
z"/>
<path fill="#050505" opacity="1.000000" stroke="none" 
	d="
M55.513000,46.913597 
	C51.595589,50.474655 46.955608,51.950531 42.809387,54.297710 
	C41.353748,55.121746 40.381062,54.685875 39.157703,54.136700 
	C37.355331,53.327602 35.494499,52.649902 33.671829,51.884647 
	C25.998499,48.662949 25.427059,47.671398 26.339853,38.652397 
	C30.168556,40.471420 33.995602,41.970009 37.478962,44.045433 
	C40.281380,45.715141 42.567616,45.336193 45.189770,43.918011 
	C48.497665,42.128941 51.938164,40.585052 55.832714,38.686104 
	C56.343449,41.592484 56.362522,44.100437 55.513000,46.913597 
z"/>
<path fill="#121212" opacity="1.000000" stroke="none" 
	d="
M97.277954,137.544312 
	C98.850182,139.502411 100.856567,139.746506 102.736954,140.334457 
	C106.189156,141.413895 108.202011,143.419525 106.410507,148.299973 
	C105.687439,144.129318 103.255417,142.851364 100.097801,141.989014 
	C95.090271,140.621429 94.195274,138.489655 96.560806,133.701065 
	C96.797096,135.238327 96.947815,136.218903 97.277954,137.544312 
z"/>
<path fill="#020202" opacity="1.000000" stroke="none" 
	d="
M110.977638,136.116638 
	C111.193642,134.648453 110.339691,132.987183 112.086189,132.950790 
	C113.456604,132.922241 113.029480,134.401962 113.051292,135.281418 
	C113.161926,139.743317 112.911491,144.240799 113.414467,148.654373 
	C113.644966,150.677017 112.549294,149.919022 111.932610,149.939178 
	C111.173912,149.963959 110.353745,150.369827 110.648628,148.488174 
	C111.257217,144.604843 110.923950,140.573898 110.977638,136.116638 
z"/>
<path fill="#080808" opacity="1.000000" stroke="none" 
	d="
M125.607880,138.688324 
	C126.371002,142.051666 125.565796,144.630142 122.911133,147.576401 
	C123.716125,142.477417 123.681564,138.255447 120.887581,134.112930 
	C124.024239,134.224777 125.036781,135.936844 125.607880,138.688324 
z"/>
<path fill="#D4D4D4" opacity="1.000000" stroke="none" 
	d="
M116.851845,133.015427 
	C116.209930,132.986633 115.862167,133.021973 115.568535,132.912323 
	C115.244041,132.791153 114.416306,132.462662 115.294510,132.196213 
	C116.129662,131.942795 117.143600,132.278580 118.078926,132.355301 
	C118.067993,132.466064 118.092491,132.650055 118.040199,132.675354 
	C117.760658,132.810623 117.461945,132.906281 116.851845,133.015427 
z"/>
</svg>